<?xml version="1.0" encoding="UTF-8" standalone="no"?>
<svg
   xmlns:dc="http://purl.org/dc/elements/1.1/"
   xmlns:cc="http://creativecommons.org/ns#"
   xmlns:rdf="http://www.w3.org/1999/02/22-rdf-syntax-ns#"
   xmlns:svg="http://www.w3.org/2000/svg"
   xmlns="http://www.w3.org/2000/svg"
   xmlns:sodipodi="http://sodipodi.sourceforge.net/DTD/sodipodi-0.dtd"
   xmlns:inkscape="http://www.inkscape.org/namespaces/inkscape"
   width="700"
   height="700"
   viewBox="0 0 525.00001 525"
   version="1.1"
   id="svg30"
   sodipodi:docname="favicon.svg"
   inkscape:version="0.92.5 (2060ec1f9f, 2020-04-08)">
  <metadata
     id="metadata36">
    <rdf:RDF>
      <cc:Work
         rdf:about="">
        <dc:format>image/svg+xml</dc:format>
        <dc:type
           rdf:resource="http://purl.org/dc/dcmitype/StillImage" />
        <dc:title></dc:title>
      </cc:Work>
    </rdf:RDF>
  </metadata>
  <defs
     id="defs34" />
  <sodipodi:namedview
     pagecolor="#ffffff"
     bordercolor="#666666"
     borderopacity="1"
     objecttolerance="10"
     gridtolerance="10"
     guidetolerance="10"
     inkscape:pageopacity="0"
     inkscape:pageshadow="2"
     inkscape:window-width="1366"
     inkscape:window-height="715"
     id="namedview32"
     showgrid="false"
     units="px"
     inkscape:snap-global="true"
     inkscape:zoom="0.2350075"
     inkscape:cx="889.33333"
     inkscape:cy="491.48963"
     inkscape:window-x="0"
     inkscape:window-y="25"
     inkscape:window-maximized="1"
     inkscape:current-layer="svg30" />
  <g
     id="#ffffffff"
     transform="translate(-408.49761,-103.72727)">
    <path
       d="m 700.76,206.35 c 15.85,4.03 30.82,10.75 46.11,16.47 -14.42,-4.24 -28.13,-10.62 -42.71,-14.32 -1.41,-0.25 -2.59,-0.99 -3.4,-2.15 z"
       id="path2"
       inkscape:connector-curvature="0"
       style="opacity:1;fill:#ffffff" />
    <path
       d="m 626.1,268.01 c 0.35,-13.67 16.47,-23.43 28.97,-18.46 8.35,2.37 11.49,11.49 18.31,16.01 1.08,0.93 2.4,-0.3 3.4,-0.79 5.76,-3.85 7.94,-11.63 14.75,-14.18 11.37,-6.16 26.96,0.71 30.85,12.83 1.5,8.42 1.49,17.07 0.82,25.58 -0.14,11.08 -8.12,21.05 -18.12,25.23 -4.74,2.08 -8.3,6.09 -10.83,10.5 -3.41,-6.08 -9.18,-10.65 -15.89,-12.56 1.42,-1.71 2.84,-3.43 4.24,-5.16 -5.37,-0.26 -10.75,-0.16 -16.12,0.07 1.31,1.7 2.63,3.41 3.96,5.11 -6.5,2.15 -12.38,6.4 -15.6,12.55 -4.64,-10.62 -18.6,-11.45 -24.14,-21.31 -7.17,-10.42 -4.24,-23.61 -4.6,-35.42 m 14.68,11.07 c -0.15,2.8 0.22,5.85 2.29,7.94 6.13,6.49 19.11,4.17 21.3,-4.97 -0.9,-0.74 -1.61,-2.11 -2.98,-1.74 -2.7,2.05 -4.02,6.1 -7.82,6.44 -5.67,1.11 -8.38,-5.42 -12.79,-7.67 m 44.63,0.52 c 0.01,2.2 -0.03,4.59 1.41,6.42 4.46,6.13 15.03,6.68 19.63,0.38 1.88,-1.8 3.28,-5.93 -0.4,-6.48 -2.41,3.1 -5.16,6.27 -9.01,7.54 -4.94,-0.84 -6.99,-6.36 -11.63,-7.86 z"
       id="path4"
       inkscape:connector-curvature="0"
       style="opacity:1;fill:#ffffff" />
    <path
       d="m 659.81,338.94 c -0.42,-8.88 7.93,-17.69 17.06,-15.83 7.66,1.05 12.33,8.8 12.43,16.06 -5.71,-0.94 -9.51,-5.67 -11.9,-10.58 -1.85,-0.02 -3.68,-0.07 -5.51,-0.12 -1.79,5.38 -6.32,9.76 -12.08,10.47 z"
       id="path6"
       inkscape:connector-curvature="0"
       style="opacity:1;fill:#ffffff" />
    <path
       d="m 537.4,394.05 c 15.03,28.23 18.69,60.74 31.82,89.74 0.7,1.97 2.96,3.51 2.41,5.81 -1.41,-0.03 -1.23,-2.16 -1.39,-3.15 -3.82,-5.58 -6.72,-11.72 -10.18,-17.53 -1.37,2.63 -2.42,5.41 -3.67,8.11 -0.37,0.89 -1.29,0.68 -2.01,0.41 0.66,-2.42 1.21,-4.86 1.58,-7.34 -6.22,-7.92 -13.42,-15.39 -17.2,-24.88 -1.95,-5.28 -2.92,-11.23 -1.08,-16.67 2.68,10.34 6.93,20.85 14.51,28.58 -1.31,-21.8 -12.32,-41.51 -14.79,-63.08 z"
       id="path8"
       inkscape:connector-curvature="0"
       style="opacity:1;fill:#ffffff" />
    <path
       d="m 788.45,460.16 c 7.42,-19.42 13.14,-39.43 19.16,-59.31 -1.69,13.26 -4.51,26.47 -8.71,39.18 -2.69,7.06 -5.64,14.23 -10.45,20.13 z"
       id="path10"
       inkscape:connector-curvature="0"
       style="opacity:1;fill:#ffffff" />
    <path
       d="m 808.43,438.77 c -0.52,-7.37 1.68,-16.6 9.06,-19.89 1.69,4.51 0.39,9.48 -1.73,13.61 -1.53,2.95 -4.03,5.48 -7.33,6.28 z"
       id="path12"
       inkscape:connector-curvature="0"
       style="opacity:1;fill:#ffffff" />
    <path
       d="m 512.59,475.01 c 0.66,-3.01 3.14,-5 5.47,-6.74 -0.22,8.55 1.71,18.91 -5.18,25.5 -0.06,-6.25 -1.82,-12.58 -0.29,-18.76 z"
       id="path14"
       inkscape:connector-curvature="0"
       style="opacity:1;fill:#ffffff" />
  </g>
  <g
     id="#000000ff"
     transform="matrix(1.2026269,0,0,1.2026269,-548.56945,-178.10557)">
    <path
       d="m 645.11,162.03 c 13.38,-14.21 37.35,-15.28 52.8,-3.87 10.72,8.35 17.26,20.63 26.87,30.09 17.43,21.53 39.44,40.04 50.92,65.83 -10.98,25.95 -26.67,49.47 -40.45,73.94 -1.35,9.44 0.66,19.32 -1.74,28.75 l -1.04,-0.64 c -2.67,10.92 -11.31,18.9 -19.75,25.68 -2.95,2.14 -5.53,4.84 -8.79,6.49 -1.87,-0.44 -3,-2.13 -4.36,-3.33 -0.06,2.25 -0.14,4.5 -0.25,6.75 -7.57,4.48 -14.99,9.34 -23.2,12.59 -8.15,-2.77 -15.7,-6.97 -23.18,-11.15 -2.92,-1.26 -2.51,-4.86 -3.08,-7.42 -1.2,0.88 -2.23,1.97 -3.19,3.1 -14.08,-8.35 -26.92,-20.59 -31.87,-36.6 -1.12,-7.28 0.2,-14.86 -1.01,-22.08 -12.33,-21.78 -24.98,-43.39 -37.3,-65.18 -5.25,-10.02 -2.75,-23.32 5.57,-30.9 19.2,-14.43 42.05,-23.94 65.85,-27.32 0.66,-1.01 1.32,-2.03 1.96,-3.05 -20.06,2.21 -39.76,8.34 -57.12,18.72 17.54,-20.06 34.41,-40.71 52.36,-60.4 m 55.65,44.32 c 0.81,1.16 1.99,1.9 3.4,2.15 14.58,3.7 28.29,10.08 42.71,14.32 -15.29,-5.72 -30.26,-12.44 -46.11,-16.47 m -74.66,61.66 c 0.36,11.81 -2.57,25 4.6,35.42 5.54,9.86 19.5,10.69 24.14,21.31 3.22,-6.15 9.1,-10.4 15.6,-12.55 -1.33,-1.7 -2.65,-3.41 -3.96,-5.11 5.37,-0.23 10.75,-0.33 16.12,-0.07 -1.4,1.73 -2.82,3.45 -4.24,5.16 6.71,1.91 12.48,6.48 15.89,12.56 2.53,-4.41 6.09,-8.42 10.83,-10.5 10,-4.18 17.98,-14.15 18.12,-25.23 0.67,-8.51 0.68,-17.16 -0.82,-25.58 -3.89,-12.12 -19.48,-18.99 -30.85,-12.83 -6.81,2.55 -8.99,10.33 -14.75,14.18 -1,0.49 -2.32,1.72 -3.4,0.79 -6.82,-4.52 -9.96,-13.64 -18.31,-16.01 -12.5,-4.97 -28.62,4.79 -28.97,18.46 m 33.71,70.93 c 5.76,-0.71 10.29,-5.09 12.08,-10.47 1.83,0.05 3.66,0.1 5.51,0.12 2.39,4.91 6.19,9.64 11.9,10.58 -0.1,-7.26 -4.77,-15.01 -12.43,-16.06 -9.13,-1.86 -17.48,6.95 -17.06,15.83 z"
       id="path17"
       inkscape:connector-curvature="0"
       style="opacity:1;fill:#000000" />
    <path
       d="m 640.78,279.08 c 4.41,2.25 7.12,8.78 12.79,7.67 3.8,-0.34 5.12,-4.39 7.82,-6.44 1.37,-0.37 2.08,1 2.98,1.74 -2.19,9.14 -15.17,11.46 -21.3,4.97 -2.07,-2.09 -2.44,-5.14 -2.29,-7.94 z"
       id="path19"
       inkscape:connector-curvature="0"
       style="opacity:1;fill:#000000" />
    <path
       d="m 685.41,279.6 c 4.64,1.5 6.69,7.02 11.63,7.86 3.85,-1.27 6.6,-4.44 9.01,-7.54 3.68,0.55 2.28,4.68 0.4,6.48 -4.6,6.3 -15.17,5.75 -19.63,-0.38 -1.44,-1.83 -1.4,-4.22 -1.41,-6.42 z"
       id="path21"
       inkscape:connector-curvature="0"
       style="opacity:1;fill:#000000" />
    <path
       d="m 746.65,352.95 c 16.11,7.97 33.89,12.41 49.11,22.18 8.5,5.37 15.69,12.86 20.22,21.88 14.23,26.29 17.55,56.48 26.49,84.63 -2.23,-0.39 -4.45,-0.88 -6.66,-1.31 -0.01,10.49 2.62,20.7 5.54,30.7 -2.69,3.93 -5.28,7.93 -8.05,11.81 -1.37,-0.52 -2.72,-1.03 -4.07,-1.53 1.41,-11.42 1.05,-22.94 0.84,-34.41 -4.34,4.27 -9.42,7.84 -15.27,9.67 0.41,-17.39 0.63,-34.8 0.23,-52.19 -5.25,13.7 -15.12,25.06 -26.48,34.13 -7.37,5.93 -15.03,11.52 -22.98,16.66 6.6,-11.15 12.83,-22.54 18.44,-34.2 3.42,-17.14 3.14,-34.79 2.19,-52.17 -2.64,3.44 -4.86,7.18 -7.26,10.78 -3.51,-1.98 -7.11,-3.79 -10.45,-6.04 2.49,-6.89 4.49,-13.95 6.37,-21.03 -8.39,8.07 -17.47,15.56 -27.8,21.02 3.24,-8.02 5.22,-16.59 5.33,-25.26 -8.06,6.76 -16.83,12.68 -26.17,17.53 4.65,-7.92 9,-16 13.35,-24.09 -1.19,-1.09 -2.36,-2.18 -3.55,-3.25 9.12,-1.61 21.3,-0.82 25.89,8.66 -0.66,-3.25 -1.81,-6.36 -2.89,-9.47 3.19,-1.37 6.44,-2.63 9.57,-4.16 -0.89,-1.84 -1.73,-3.7 -2.6,-5.53 -0.37,3.56 -2.48,7.12 -6.2,7.89 -7.43,1.71 -15,-0.96 -22.5,0.01 7.34,-5.28 6.59,-15.21 9.36,-22.91 m 41.8,107.21 c 4.81,-5.9 7.76,-13.07 10.45,-20.13 4.2,-12.71 7.02,-25.92 8.71,-39.18 -6.02,19.88 -11.74,39.89 -19.16,59.31 m 19.98,-21.39 c 3.3,-0.8 5.8,-3.33 7.33,-6.28 2.12,-4.13 3.42,-9.1 1.73,-13.61 -7.38,3.29 -9.58,12.52 -9.06,19.89 z"
       id="path23"
       inkscape:connector-curvature="0"
       style="opacity:1;fill:#000000" />
    <path
       d="m 536.78,380.78 c 13.4,-14.51 32.32,-22.44 51.09,-27.36 8.82,6.71 18.47,14.34 21.05,25.73 1.41,4.03 -1.04,7.82 -2.46,11.46 -3.01,6.81 -6.8,14.25 -4.65,21.88 1.85,4.76 3.58,9.81 7.27,13.51 6.69,6.89 16.08,10.27 22.94,16.96 2.44,2.3 4.22,5.16 6.04,7.95 12.42,18.97 18.75,41.57 19.61,64.13 0.39,8.22 -0.77,16.46 0.33,24.66 1.02,15.41 1.45,30.87 1.7,46.32 -0.02,1.81 0.14,3.63 0.73,5.38 -26.2,-2.99 -52.96,-5.87 -77.44,-16.34 -3.48,-2.11 -5.49,-6.23 -6.39,-10.07 0.74,-3.22 1.76,-6.52 0.95,-9.83 -3.8,-21.82 -19.52,-38.94 -25.46,-60.01 14.81,14.81 23.1,34.44 33.62,52.23 5.48,9.1 11.24,18.3 19.11,25.53 -10,-16.82 -19.13,-34.15 -28.09,-51.55 -6.15,-12.84 -17.04,-22.93 -22,-36.42 -1.1,-1.77 -0.24,-3.6 0.82,-5.14 -7.44,-3.43 -14.23,-8.05 -21.42,-11.93 7.74,22.66 15.96,45.19 25.53,67.15 -16.44,-9.26 -34.44,-15.83 -53.17,-18.43 -0.04,0.13 -0.1,0.4 -0.13,0.53 16.38,6.32 33.76,11.02 48.25,21.32 7.49,5.5 13.97,12.75 17.51,21.42 0.89,4.13 1.28,8.36 1.75,12.56 -18.13,-10.8 -36.52,-21.29 -53.43,-33.97 -11.77,-8.67 -22.57,-18.63 -32.21,-29.61 13.67,-35.62 24.95,-72.08 37.12,-108.21 2.23,-7.38 6.24,-14.16 11.43,-19.85 m 0.62,13.27 c 2.47,21.57 13.48,41.28 14.79,63.08 -7.58,-7.73 -11.83,-18.24 -14.51,-28.58 -1.84,5.44 -0.87,11.39 1.08,16.67 3.78,9.49 10.98,16.96 17.2,24.88 -0.37,2.48 -0.92,4.92 -1.58,7.34 0.72,0.27 1.64,0.48 2.01,-0.41 1.25,-2.7 2.3,-5.48 3.67,-8.11 3.46,5.81 6.36,11.95 10.18,17.53 0.16,0.99 -0.02,3.12 1.39,3.15 0.55,-2.3 -1.71,-3.84 -2.41,-5.81 -13.13,-29 -16.79,-61.51 -31.82,-89.74 m -24.81,80.96 c -1.53,6.18 0.23,12.51 0.29,18.76 6.89,-6.59 4.96,-16.95 5.18,-25.5 -2.33,1.74 -4.81,3.73 -5.47,6.74 z"
       id="path25"
       inkscape:connector-curvature="0"
       style="opacity:1;fill:#000000" />
    <path
       d="m 839.51,483.19 c 6.97,5.77 7.06,15.75 7.2,24.05 -3.86,-0.93 -6.25,-4.55 -7.26,-8.17 -1.5,-5.12 -1.77,-10.8 0.06,-15.88 z"
       id="path27"
       inkscape:connector-curvature="0"
       style="opacity:1;fill:#000000" />
  </g>
</svg>
